<svg xmlns="http://www.w3.org/2000/svg" xmlns:xlink="http://www.w3.org/1999/xlink" id="Icon" x="0" y="0" version="1.1" viewBox="0 0 64 64" xml:space="preserve" style="enable-background:new 0 0 64 64"><style type="text/css">.st0{opacity:0;fill:#fff}.st1{fill:#f60}.st2{fill:#fff}</style><g id="Fill"><rect width="64" height="64" y=".11" class="st0"/></g><g id="XML"><g id="BG_2_"><path d="M47.67,59.89H16.5c-6.6,0-12-5.4-12-12V16.73c0-6.6,5.4-12,12-12h31.17c6.6,0,12,5.4,12,12v31.17 C59.67,54.49,54.27,59.89,47.67,59.89z" class="st1"/></g><g id="Icon_2_"><g id="Layer_9_copy"><g><path d="M26.19,44.76L10.77,34.67v-5.59l15.42-10.04v6.58l-10.75,6.19l10.75,6.42V44.76z" class="st2"/><path d="M27.62,49.19l5.57-35h3.24l-5.63,35H27.62z" class="st2"/><path d="M37.85,44.78v-6.53l10.77-6.37l-10.77-6.3v-6.49l15.43,10.04v5.54L37.85,44.78z" class="st2"/></g></g></g></g></svg>